<?xml version="1.0" standalone="no"?>
<!DOCTYPE svg PUBLIC "-//W3C//DTD SVG 20010904//EN"
 "http://www.w3.org/TR/2001/REC-SVG-20010904/DTD/svg10.dtd">
<svg version="1.0" xmlns="http://www.w3.org/2000/svg"
 width="700.000000pt" height="700.000000pt" viewBox="0 0 700.000000 700.000000"
 preserveAspectRatio="xMidYMid meet">
<metadata>
Created by potrace 1.14, written by Peter Selinger 2001-2017
</metadata>
<g transform="translate(0.000000,700.000000) scale(0.100000,-0.100000)"
fill="#000000" stroke="none">
<path d="M3300 5801 c0 -3 -20 -7 -43 -8 -65 -3 -219 -40 -332 -78 -55 -19
-104 -36 -110 -37 -69 -20 -413 -222 -423 -249 -2 -5 -7 -9 -12 -9 -17 0 -182
-157 -268 -256 -82 -93 -257 -374 -263 -421 -1 -5 -9 -24 -19 -43 -32 -65 -60
-151 -94 -296 -29 -124 -34 -159 -42 -298 -7 -108 -7 -109 14 -104 12 4 25 2
28 -3 3 -5 10 -7 15 -3 14 8 379 11 379 3 0 -4 15 -3 34 1 19 4 46 5 60 3 24
-5 26 -3 27 33 1 22 2 50 4 64 16 144 15 138 45 247 26 93 63 179 132 303 67
123 227 290 368 384 100 67 280 156 280 139 0 -3 6 -1 13 5 12 10 78 30 127
38 14 3 32 7 40 9 46 13 130 20 245 19 142 0 191 -6 307 -35 75 -19 95 -25
165 -55 17 -8 34 -14 37 -14 23 0 234 -134 292 -185 266 -233 412 -522 440
-872 6 -74 17 -99 37 -86 13 8 227 9 227 2 0 -4 17 -3 37 1 20 5 40 7 44 5 8
-6 83 -7 127 -2 18 2 35 0 37 -4 3 -3 16 -4 31 -1 l26 5 -5 106 c-3 58 -8 117
-11 131 -3 14 -8 43 -11 65 -4 22 -8 49 -10 61 -1 11 -13 56 -25 100 -12 43
-23 84 -24 89 -3 11 -8 23 -39 105 -58 153 -181 361 -291 494 -43 53 -203 216
-211 216 -3 0 -13 8 -23 18 -51 48 -213 162 -231 162 -6 0 -11 5 -11 10 0 6
-9 10 -20 10 -11 0 -20 4 -20 8 0 7 -110 62 -210 105 -76 32 -245 81 -335 96
-33 5 -76 13 -95 17 -45 8 -440 13 -440 5z"/>
<path d="M1115 3910 l-30 -5 0 -275 0 -275 280 -2 c154 -1 290 -2 303 -2 l22
-1 0 -1080 0 -1080 283 0 282 0 -2 1080 -2 1080 27 1 c15 0 259 0 542 0 283 0
522 2 530 5 13 3 15 43 15 279 0 268 0 275 -20 276 -89 4 -2207 3 -2230 -1z"/>
<path d="M3647 3908 c-9 -4 -12 -77 -11 -275 1 -147 2 -271 3 -274 0 -4 251
-6 556 -5 l555 1 0 -1083 0 -1082 281 2 282 3 0 1073 c0 644 3 1075 9 1078 5
3 140 7 301 7 l292 2 0 278 c0 240 -2 277 -15 278 -85 5 -2244 2 -2253 -3z"/>
</g>
</svg>
